<?xml version="1.0" encoding="utf-8"?>
<!-- Generator: Adobe Illustrator 27.7.0, SVG Export Plug-In . SVG Version: 6.00 Build 0)  -->
<svg version="1.1" xmlns="http://www.w3.org/2000/svg" xmlns:xlink="http://www.w3.org/1999/xlink" x="0px" y="0px"
	 viewBox="0 0 600 300" style="enable-background:new 0 0 600 300;" xml:space="preserve">
<style type="text/css">
	.st0{fill:#A8A8A8;}
</style>
<g id="Layer_1">
</g>
<g id="logo">
	<g>
		<g>
			<polygon class="st0" points="48.67,257.53 65.27,257.53 65.27,223.32 108.43,223.32 108.43,209.27 65.27,209.27 65.27,182.07 
				113.92,182.07 113.92,168.16 48.67,168.16 			"/>
			<rect x="123.33" y="189.33" class="st0" width="15.96" height="68.2"/>
			<rect x="123.06" y="167.98" class="st0" width="15.96" height="14.78"/>
			<path class="st0" d="M165.14,199.29v-9.96h-15.19v68.18h15.96v-33.07c0-13.92,7.66-21.07,19.79-21.07c1.15,0,2.3,0.13,3.7,0.38
				v-15.19C178.03,188.57,169.74,192.14,165.14,199.29z"/>
			<path class="st0" d="M226.77,187.69c-20.3,0-35.24,14.55-35.24,34.86s14.81,34.98,37.66,34.98c11.75,0,21.32-3.83,27.45-11.11
				l-8.55-9.83c-4.85,4.98-10.85,7.4-18.51,7.4c-11.87,0-20.17-6.38-22.09-16.34h53.5c0.13-1.53,0.26-3.45,0.26-4.72
				C261.24,201.61,246.69,187.69,226.77,187.69z M207.36,217.06c1.53-9.96,9.07-16.6,19.41-16.6c10.47,0,18,6.77,19.28,16.6H207.36z
				"/>
		</g>
		<path class="st0" d="M380.25,187.69c-17.91,0-31.01,14.43-31.01,34.86c0,20.43,13.1,34.98,31.01,34.98
			c18.13,0,31.12-14.55,31.12-34.98C411.37,202.12,398.38,187.69,380.25,187.69z M380.25,243.87c-9.83,0-17.25-8.3-17.25-21.32
			c0-13.02,7.43-21.32,17.25-21.32c9.94,0,17.36,8.3,17.36,21.32C397.62,235.57,390.19,243.87,380.25,243.87z"/>
		<path class="st0" d="M296.69,187.69c-17.91,0-31.01,14.43-31.01,34.86c0,20.43,13.1,34.98,31.01,34.98
			c18.13,0,31.12-14.55,31.12-34.98C327.82,202.12,314.82,187.69,296.69,187.69z M296.69,243.87c-9.83,0-17.25-8.3-17.25-21.32
			c0-13.02,7.43-21.32,17.25-21.32c9.94,0,17.36,8.3,17.36,21.32C314.06,235.57,306.63,243.87,296.69,243.87z"/>
		<path class="st0" d="M465.93,198.4c-4.78-6.77-11.95-9.83-20.09-9.83c-16.62,0-29.32,13.02-29.32,32.81s12.71,33.07,29.32,33.07
			c7.82,0,14.66-2.94,19.44-9.07v3.58c0,13.79-5.65,20.68-18.46,20.68c-8.04,0-16.29-3.19-21.39-8.17l-6.08,12
			c6.62,6.38,17.37,9.7,28.23,9.7c20.31,0,31.27-11.24,31.27-36v-57.84h-12.92V198.4z M447.9,240.91c-10.32,0-17.7-7.92-17.7-19.54
			c0-11.49,7.38-19.28,17.7-19.28c10.21,0,17.59,7.79,17.59,19.28C465.49,233,458.11,240.91,447.9,240.91z"/>
		<path class="st0" d="M542.11,189.57l-19.56,50.43l-19.44-50.43h-15.05l26.97,68.43l-1.04,2.68c-2.78,6.77-5.79,9.45-10.88,9.45
			c-3.94,0-7.87-1.79-10.65-4.72l-5.79,11.75c3.94,3.96,10.42,6.26,16.55,6.26c10.3,0,18.17-4.72,23.84-20.17L556,189.57H542.11z"/>
		<path class="st0" d="M327.78,148.87h-12.64v9.62v28.68v0.93v0.77c1.71,0.89,8.41,4.74,12.64,13.09v-5.99v-0.06v-37.41h4.45v98.09
			h12.64v-98.09v-9.62h-12.64H327.78z"/>
		<path class="st0" d="M323.73,14.82c0.58,0.23,1.11,3.11,1.25,3.61c0.86,3.11,1.31,6.35,1.35,9.58
			c0.22,15.45-9.91,26.83-20.79,36.54c-19.69,17.57-35.41,44.97-22.48,71.39c5.61,11.46,15.95,19.62,27.37,24.85
			c-1.37-0.63-2.81-3.05-3.72-4.16c-2.91-3.57-5.47-7.43-7.63-11.5c-6.18-11.69-8.55-25.21-4.64-38.04
			c2.23-7.31,6.24-13.99,11.15-19.81c3.87-4.59,8.4-8.23,12.87-12.16c6.47-5.71,12.63-12.11,17.17-19.48
			c1.85-3.01,3.47-6.25,4.28-9.71c0.36-1.56,0.56-3.16,0.49-4.76c-0.04-0.79-0.18-3.96-0.97-4.38c0,0,25.21,13.45,29.5,57.31
			C368.93,94.08,388.69,40.87,323.73,14.82z"/>
		<path class="st0" d="M359.01,27.49c0,0,52.46,50.98-4.56,126.15C354.44,153.65,445.7,83.51,359.01,27.49z"/>
		<g>
			<path class="st0" d="M345.98,112.07c-2.25-3.33-2.67-3.77-2.48-3.51c-21.19,4.84-22.87,21.61-22.22,26.15
				c0.26,1.81,0.73,3.38,1.31,4.72c0.18,0.42,0.37,0.81,0.57,1.19c-1.86-3.66-1.53-7.65,0.52-10.26c1.34-1.7,3.43-2.82,6.12-2.86
				c7.13,0.12,9.98,7.71,6.18,13.95c-2.37,3.9-6.16,5.57-6.16,5.57c3.58,0.18,6.76-0.61,7.43-0.84c3.21-1.12,6.57-2.98,8.72-5.36
				C353.64,132.35,351.61,120.4,345.98,112.07z"/>
			<path class="st0" d="M343.28,143.14c5.17-3.86,5.59-17.63-6.6-20.19c-10.63-2.23-15.84,7.38-14.73,14.22
				c0.29,1.79,1.03,3.06,0.9,2.76c-1.49-3.47-1.09-7.13,0.83-9.58c1.34-1.7,3.43-2.82,6.12-2.86c7.13,0.12,9.98,7.71,6.18,13.95
				c-2.37,3.9-6.16,5.57-6.16,5.57C334.63,147.26,339.11,146.06,343.28,143.14z"/>
			<path class="st0" d="M321.28,134.71c-0.65-4.53,1.03-21.3,22.22-26.15c-0.2-0.26-3.17-4.21-4.84-6.29
				c-3.95-4.92-7.3-8.64-7.3-8.64s-8.83,9.68-14.75,18.44c-5.63,8.33-7.66,20.28,0,28.75c2.76,3.05,8.04,5.93,13.22,6.2
				C329.83,147.01,322.68,144.37,321.28,134.71z"/>
		</g>
	</g>
</g>
</svg>
