<?xml version="1.0" encoding="utf-8"?>
<!-- Generator: Adobe Illustrator 27.7.0, SVG Export Plug-In . SVG Version: 6.00 Build 0)  -->
<svg version="1.1" id="Layer_1" xmlns="http://www.w3.org/2000/svg" xmlns:xlink="http://www.w3.org/1999/xlink" x="0px" y="0px"
	 viewBox="0 0 98 10" style="enable-background:new 0 0 98 10;" xml:space="preserve">
<style type="text/css">
	.st0{fill:#002B0F;}
	.st1{font-family:'TomatoGrotesk-Medium';}
	.st2{font-size:9.5325px;}
	.st3{fill:#C9F74B;}
</style>
<text transform="matrix(1 0 0 1 28.5117 8.1025)" class="st0 st1 st2">GraphixGlide</text>
<g>
	<g>
		<path class="st3" d="M21.5,1.3c0.1,0.2,0.7,1.4,1.3,2.6c0.2,0.4-0.3,0.8-0.6,0.4c-0.9-1.1-1.8-2.1-1.9-2.3c-0.2-0.3-0.1-0.8,0.2-1
			C20.8,0.9,21.3,1,21.5,1.3z"/>
	</g>
	<g>
		<path class="st3" d="M18.5,4.4c0.2-0.1,1.6-0.3,2.9-0.4c0.5-0.1,0.6,0.6,0.2,0.7c-1.3,0.5-2.6,1.1-2.7,1.1C18.5,6,18.1,5.7,18,5.3
			C17.9,5,18.1,4.6,18.5,4.4z"/>
	</g>
	<g>
		<path class="st3" d="M20.6,8.2c0-0.2,0.2-1.6,0.5-2.9c0.1-0.5,0.7-0.4,0.8,0c0.1,1.4,0.2,2.8,0.2,3C22,8.7,21.7,9,21.3,9
			C20.9,9,20.5,8.6,20.6,8.2z"/>
	</g>
	<g>
		<path class="st3" d="M24.8,7.5c-0.2-0.1-1.4-0.7-2.6-1.4c-0.4-0.2-0.2-0.8,0.3-0.7c1.3,0.3,2.7,0.6,2.9,0.7
			c0.4,0.1,0.6,0.6,0.4,0.9C25.6,7.4,25.2,7.6,24.8,7.5z"/>
	</g>
	<g>
		<path class="st3" d="M25.4,3.2c-0.1,0.2-1.1,1.1-2.1,2.1c-0.3,0.3-0.8-0.1-0.6-0.5c0.7-1.2,1.4-2.4,1.6-2.5c0.3-0.3,0.7-0.4,1-0.1
			C25.6,2.4,25.6,2.9,25.4,3.2z"/>
	</g>
</g>
</svg>
