<?xml version="1.0" encoding="utf-8"?>
<!-- Generator: Adobe Illustrator 27.7.0, SVG Export Plug-In . SVG Version: 6.00 Build 0)  -->
<svg version="1.1" id="Layer_1" xmlns="http://www.w3.org/2000/svg" xmlns:xlink="http://www.w3.org/1999/xlink" x="0px" y="0px"
	 viewBox="0 0 112 32" style="enable-background:new 0 0 112 32;" xml:space="preserve">
<style type="text/css">
	.st0{fill:#002B0F;}
	.st1{font-family:'TomatoGrotesk-Medium';}
	.st2{font-size:16.3673px;}
	.st3{fill:#C9F74B;}
</style>
<text transform="matrix(0.9942 0 0 1 19.5303 22.4365)" class="st0 st1 st2">DesignGlide</text>
<g>
	<g>
		<path class="st3" d="M8.7,8.6c0.2,0.4,1.5,3,2.8,5.6c0.4,0.9-0.6,1.7-1.3,0.9c-1.9-2.4-3.9-4.5-4.1-5C5.7,9.4,5.9,8.4,6.6,7.9
			C7.2,7.7,8.3,7.9,8.7,8.6z"/>
	</g>
	<g>
		<path class="st3" d="M2.3,15.3c0.4-0.2,3.5-0.6,6.3-0.9c1.1-0.2,1.3,1.3,0.4,1.5c-2.8,1.1-5.6,2.4-5.8,2.4
			c-0.9,0.4-1.7-0.2-1.9-1.1C1,16.6,1.4,15.7,2.3,15.3z"/>
	</g>
	<g>
		<path class="st3" d="M6.8,23.5c0-0.4,0.4-3.5,1.1-6.3c0.2-1.1,1.5-0.9,1.7,0c0.2,3,0.4,6.1,0.4,6.5c-0.2,0.9-0.9,1.5-1.7,1.5
			C7.4,25.2,6.6,24.4,6.8,23.5z"/>
	</g>
	<g>
		<path class="st3" d="M15.9,22c-0.4-0.2-3-1.5-5.6-3c-0.9-0.4-0.4-1.7,0.6-1.5c2.8,0.6,5.8,1.3,6.3,1.5c0.9,0.2,1.3,1.3,0.9,1.9
			C17.6,21.8,16.7,22.2,15.9,22z"/>
	</g>
	<g>
		<path class="st3" d="M17.2,12.7c-0.2,0.4-2.4,2.4-4.5,4.5c-0.6,0.6-1.7-0.2-1.3-1.1c1.5-2.6,3-5.2,3.5-5.4
			c0.6-0.6,1.5-0.9,2.2-0.2C17.6,11,17.6,12,17.2,12.7z"/>
	</g>
</g>
</svg>
