<?xml version="1.0" encoding="utf-8"?>
<!-- Generator: Adobe Illustrator 27.7.0, SVG Export Plug-In . SVG Version: 6.00 Build 0)  -->
<svg version="1.1" id="Layer_1" xmlns="http://www.w3.org/2000/svg" xmlns:xlink="http://www.w3.org/1999/xlink" x="0px" y="0px"
	 viewBox="0 0 524.5 101.5" style="enable-background:new 0 0 524.5 101.5;" xml:space="preserve">
<style type="text/css">
	.st0{fill:#002B0F;}
	.st1{font-family:'TomatoGrotesk-Medium';}
	.st2{font-size:65.3057px;}
	.st3{fill:#C9F74B;}
</style>
<text transform="matrix(1 0 0 1 109.0166 68.5781)" class="st0 st1 st2">GraphixGlide</text>
<g>
	<g>
		<path class="st3" d="M53,20.3c0.9,1.4,6,11.7,11.2,22.2c1.7,3.4-2.9,6.5-5.4,3.6c-7.6-8.8-15.1-17.6-16-19
			c-1.9-2.8-1.1-6.6,1.7-8.5C47.4,16.6,51.2,17.4,53,20.3z"/>
	</g>
	<g>
		<path class="st3" d="M28.2,46.4c1.6-0.4,13-2.1,24.5-3.8c3.8-0.5,5.3,4.8,1.7,6.3c-10.7,4.5-21.4,8.9-23,9.3
			c-3.3,0.9-6.6-1-7.5-4.3C23,50.6,24.9,47.3,28.2,46.4z"/>
	</g>
	<g>
		<path class="st3" d="M45.3,78.1c0.1-1.6,2-13.1,4-24.5c0.7-3.8,6.2-3.5,6.5,0.3c0.9,11.6,1.8,23.1,1.7,24.8c-0.2,3.4-3,6-6.4,5.8
			C47.8,84.3,45.1,81.5,45.3,78.1z"/>
	</g>
	<g>
		<path class="st3" d="M80.8,71.6c-1.5-0.6-11.8-6-22.1-11.4c-3.4-1.8-1.4-7,2.3-6.1c11.3,2.7,22.6,5.4,24.1,6
			c3.2,1.2,4.8,4.7,3.6,7.9C87.5,71.2,83.9,72.8,80.8,71.6z"/>
	</g>
	<g>
		<path class="st3" d="M85.5,35.8c-1,1.3-9.3,9.4-17.6,17.5c-2.8,2.7-7.1-0.8-5.1-4.1c6-9.9,12.1-19.8,13.1-21.1
			c2.1-2.6,6-3.1,8.6-1C87.2,29.3,87.7,33.2,85.5,35.8z"/>
	</g>
</g>
</svg>
