<?xml version="1.0" encoding="utf-8"?>
<!-- Generator: Adobe Illustrator 27.7.0, SVG Export Plug-In . SVG Version: 6.00 Build 0)  -->
<svg version="1.1" xmlns="http://www.w3.org/2000/svg" xmlns:xlink="http://www.w3.org/1999/xlink" x="0px" y="0px"
	 viewBox="0 0 600 228" style="enable-background:new 0 0 600 228;" xml:space="preserve">
<style type="text/css">
	.st0{fill:#A8A8A8;}
</style>
<g id="Layer_1">
	<g id="Layer_1_00000010274271341581889170000015460057545043518621_">
	</g>
</g>
<g id="logo_00000015354305343647948760000002416492554906985644_">
	<g>
		<g>
			<polygon class="st0" points="24.6,159.3 42.8,159.3 42.8,121.9 90,121.9 90,106.5 42.8,106.5 42.8,76.7 96.1,76.7 96.1,61.5 
				24.6,61.5 			"/>
			<rect x="106.4" y="84.7" class="st0" width="17.5" height="74.7"/>
			<rect x="106.1" y="61.3" class="st0" width="17.5" height="16.2"/>
			<path class="st0" d="M152.1,95.6V84.7h-16.6v74.6H153v-36.2c0-15.2,8.4-23.1,21.7-23.1c1.3,0,2.5,0.1,4.1,0.4V83.8
				C166.2,83.8,157.2,87.7,152.1,95.6z"/>
			<path class="st0" d="M219.6,82.9c-22.2,0-38.6,15.9-38.6,38.2s16.2,38.3,41.2,38.3c12.9,0,23.3-4.2,30-12.2l-9.4-10.8
				c-5.3,5.5-11.9,8.1-20.3,8.1c-13,0-22.1-7-24.2-17.9h58.6c0.1-1.7,0.3-3.8,0.3-5.2C257.3,98.1,241.4,82.9,219.6,82.9z M198.4,115
				c1.7-10.9,9.9-18.2,21.2-18.2c11.5,0,19.7,7.4,21.1,18.2H198.4z"/>
		</g>
		<path class="st0" d="M387.6,82.9c-19.6,0-33.9,15.8-33.9,38.2c0,22.4,14.3,38.3,33.9,38.3c19.8,0,34.1-15.9,34.1-38.3
			C421.7,98.6,407.5,82.9,387.6,82.9z M387.6,144.3c-10.8,0-18.9-9.1-18.9-23.3c0-14.3,8.1-23.3,18.9-23.3c10.9,0,19,9.1,19,23.3
			C406.6,135.3,398.5,144.3,387.6,144.3z"/>
		<path class="st0" d="M296.1,82.9c-19.6,0-33.9,15.8-33.9,38.2c0,22.4,14.3,38.3,33.9,38.3c19.8,0,34.1-15.9,34.1-38.3
			C330.2,98.6,316,82.9,296.1,82.9z M296.1,144.3c-10.8,0-18.9-9.1-18.9-23.3c0-14.3,8.1-23.3,18.9-23.3c10.9,0,19,9.1,19,23.3
			C315.1,135.3,307,144.3,296.1,144.3z"/>
		<path class="st0" d="M481.4,94.6c-5.2-7.4-13.1-10.8-22-10.8c-18.2,0-32.1,14.3-32.1,35.9s13.9,36.2,32.1,36.2
			c8.6,0,16-3.2,21.3-9.9v3.9c0,15.1-6.2,22.6-20.2,22.6c-8.8,0-17.8-3.5-23.4-8.9l-6.7,13.1c7.3,7,19,10.6,30.9,10.6
			c22.2,0,34.2-12.3,34.2-39.4V84.6h-14.1V94.6z M461.7,141.1c-11.3,0-19.4-8.7-19.4-21.4c0-12.6,8.1-21.1,19.4-21.1
			c11.2,0,19.3,8.5,19.3,21.1C480.9,132.4,472.8,141.1,461.7,141.1z"/>
		<path class="st0" d="M564.8,84.9l-21.4,55.2l-21.3-55.2h-16.5l29.5,74.9l-1.1,2.9c-3,7.4-6.3,10.3-11.9,10.3
			c-4.3,0-8.6-2-11.7-5.2l-6.3,12.9c4.3,4.3,11.4,6.8,18.1,6.8c11.3,0,19.9-5.2,26.1-22.1L580,84.9H564.8z"/>
		<path class="st0" d="M330.2,40.4h-13.8v10.5v31.4v1v0.8c1.9,1,9.2,5.2,13.8,14.3v-6.6v-0.1v-41h4.9v107.4h13.8V50.9V40.4H335
			H330.2z"/>
	</g>
</g>
</svg>
